<?xml version="1.0" standalone="no"?>
<!DOCTYPE svg PUBLIC "-//W3C//DTD SVG 1.1//EN" "http://www.w3.org/Graphics/SVG/1.1/DTD/svg11.dtd" >
<svg xmlns="http://www.w3.org/2000/svg">
<metadata></metadata>
<defs>
<font id="erbos_draco_open_nbpregular" horiz-adv-x="1806" >
<font-face units-per-em="2048" ascent="1638" descent="-410" />
<missing-glyph horiz-adv-x="500" />
<glyph horiz-adv-x="2048" />
<glyph horiz-adv-x="2048" />
<glyph unicode="&#xd;" />
<glyph unicode=" " />
<glyph unicode="!" d="M536 24v206h206v-206h-206zM536 536v206h206v-206h-206zM536 792v206h206v-206h-206zM536 1048v206h206v-206h-206zM536 1304v206h206v-206h-206zM536 1560v206h206v-206h-206z" />
<glyph unicode="&#x22;" d="M536 1560v206h206v-206h-206zM536 1816v206h206v-206h-206zM1048 1560v206h206v-206h-206zM1048 1816v206h206v-206h-206z" />
<glyph unicode="#" d="M24 280v206h206v-206h-206zM24 792v206h206v-206h-206zM280 24v206h206v-206h-206zM280 280v206h206v-206h-206zM280 536v206h206v-206h-206zM280 792v206h206v-206h-206zM280 1048v206h206v-206h-206zM536 280v206h206v-206h-206zM536 792v206h206v-206h-206zM792 24 v206h206v-206h-206zM792 280v206h206v-206h-206zM792 536v206h206v-206h-206zM792 792v206h206v-206h-206zM792 1048v206h206v-206h-206zM1048 280v206h206v-206h-206zM1048 792v206h206v-206h-206z" />
<glyph unicode="$" d="M24 280v206h206v-206h-206zM24 1048v206h206v-206h-206zM280 280v206h206v-206h-206zM280 792v206h206v-206h-206zM280 1304v206h206v-206h-206zM536 24v206h206v-206h-206zM536 280v206h206v-206h-206zM536 536v206h206v-206h-206zM536 792v206h206v-206h-206zM536 1048 v206h206v-206h-206zM536 1304v206h206v-206h-206zM536 1560v206h206v-206h-206zM792 280v206h206v-206h-206zM792 792v206h206v-206h-206zM792 1304v206h206v-206h-206zM1048 536v206h206v-206h-206zM1048 1304v206h206v-206h-206z" />
<glyph unicode="%" d="M24 24v206h206v-206h-206zM24 792v206h206v-206h-206zM24 1048v206h206v-206h-206zM280 280v206h206v-206h-206zM280 792v206h206v-206h-206zM280 1048v206h206v-206h-206zM536 536v206h206v-206h-206zM792 24v206h206v-206h-206zM792 280v206h206v-206h-206zM792 792 v206h206v-206h-206zM1048 24v206h206v-206h-206zM1048 280v206h206v-206h-206zM1048 1048v206h206v-206h-206z" />
<glyph unicode="&#x26;" d="M24 280v206h206v-206h-206zM24 536v206h206v-206h-206zM280 24v206h206v-206h-206zM280 792v206h206v-206h-206zM280 1048v206h206v-206h-206zM280 1304v206h206v-206h-206zM536 24v206h206v-206h-206zM536 536v206h206v-206h-206zM536 1048v206h206v-206h-206zM536 1560 v206h206v-206h-206zM792 280v206h206v-206h-206zM792 1304v206h206v-206h-206zM1048 24v206h206v-206h-206z" />
<glyph unicode="'" d="M792 1560v206h206v-206h-206zM792 1816v206h206v-206h-206z" />
<glyph unicode="(" d="M280 536v206h206v-206h-206zM280 792v206h206v-206h-206zM280 1048v206h206v-206h-206zM536 280v206h206v-206h-206zM536 1304v206h206v-206h-206zM792 24v206h206v-206h-206zM792 1560v206h206v-206h-206z" />
<glyph unicode=")" d="M280 24v206h206v-206h-206zM280 1560v206h206v-206h-206zM536 280v206h206v-206h-206zM536 1304v206h206v-206h-206zM792 536v206h206v-206h-206zM792 792v206h206v-206h-206zM792 1048v206h206v-206h-206z" />
<glyph unicode="*" d="M24 1560v206h206v-206h-206zM280 1304v206h206v-206h-206zM280 1560v206h206v-206h-206zM536 1560v206h206v-206h-206zM536 1816v206h206v-206h-206zM792 1304v206h206v-206h-206zM792 1560v206h206v-206h-206zM1048 1560v206h206v-206h-206z" />
<glyph unicode="+" d="M24 792v206h206v-206h-206zM280 792v206h206v-206h-206zM536 280v206h206v-206h-206zM536 536v206h206v-206h-206zM536 792v206h206v-206h-206zM536 1048v206h206v-206h-206zM536 1304v206h206v-206h-206zM792 792v206h206v-206h-206zM1048 792v206h206v-206h-206z" />
<glyph unicode="," d="M24 24v206h206v-206h-206zM24 536v206h206v-206h-206zM280 280v206h206v-206h-206zM280 536v206h206v-206h-206z" />
<glyph unicode="-" d="M24 792v206h206v-206h-206zM280 792v206h206v-206h-206zM536 792v206h206v-206h-206zM792 792v206h206v-206h-206zM1048 792v206h206v-206h-206z" />
<glyph unicode="." d="M24 24v206h206v-206h-206zM24 280v206h206v-206h-206zM280 24v206h206v-206h-206zM280 280v206h206v-206h-206z" />
<glyph unicode="/" d="M24 24v206h206v-206h-206zM280 280v206h206v-206h-206zM536 536v206h206v-206h-206zM792 792v206h206v-206h-206zM1048 1048v206h206v-206h-206z" />
<glyph unicode="0" d="M24 280v206h206v-206h-206zM24 536v206h206v-206h-206zM24 792v206h206v-206h-206zM24 1048v206h206v-206h-206zM24 1304v206h206v-206h-206zM280 24v206h206v-206h-206zM280 536v206h206v-206h-206zM280 1560v206h206v-206h-206zM536 24v206h206v-206h-206zM536 792v206 h206v-206h-206zM536 1560v206h206v-206h-206zM792 24v206h206v-206h-206zM792 1048v206h206v-206h-206zM792 1560v206h206v-206h-206zM1048 280v206h206v-206h-206zM1048 536v206h206v-206h-206zM1048 792v206h206v-206h-206zM1048 1048v206h206v-206h-206zM1048 1304v206 h206v-206h-206z" />
<glyph unicode="1" d="M280 24v206h206v-206h-206zM280 1304v206h206v-206h-206zM536 24v206h206v-206h-206zM536 280v206h206v-206h-206zM536 536v206h206v-206h-206zM536 792v206h206v-206h-206zM536 1048v206h206v-206h-206zM536 1304v206h206v-206h-206zM536 1560v206h206v-206h-206z M792 24v206h206v-206h-206z" />
<glyph unicode="2" d="M24 24v206h206v-206h-206zM24 280v206h206v-206h-206zM24 1304v206h206v-206h-206zM280 24v206h206v-206h-206zM280 536v206h206v-206h-206zM280 1560v206h206v-206h-206zM536 24v206h206v-206h-206zM536 792v206h206v-206h-206zM536 1560v206h206v-206h-206zM792 24v206 h206v-206h-206zM792 792v206h206v-206h-206zM792 1560v206h206v-206h-206zM1048 24v206h206v-206h-206zM1048 1048v206h206v-206h-206zM1048 1304v206h206v-206h-206z" />
<glyph unicode="3" d="M24 280v206h206v-206h-206zM24 1304v206h206v-206h-206zM280 24v206h206v-206h-206zM280 1560v206h206v-206h-206zM536 24v206h206v-206h-206zM536 792v206h206v-206h-206zM536 1560v206h206v-206h-206zM792 24v206h206v-206h-206zM792 792v206h206v-206h-206zM792 1560 v206h206v-206h-206zM1048 280v206h206v-206h-206zM1048 536v206h206v-206h-206zM1048 1048v206h206v-206h-206zM1048 1304v206h206v-206h-206z" />
<glyph unicode="4" d="M24 792v206h206v-206h-206zM24 1048v206h206v-206h-206zM280 792v206h206v-206h-206zM280 1304v206h206v-206h-206zM536 792v206h206v-206h-206zM536 1560v206h206v-206h-206zM792 24v206h206v-206h-206zM792 280v206h206v-206h-206zM792 536v206h206v-206h-206zM792 792 v206h206v-206h-206zM792 1048v206h206v-206h-206zM792 1304v206h206v-206h-206zM792 1560v206h206v-206h-206zM1048 792v206h206v-206h-206z" />
<glyph unicode="5" d="M24 24v206h206v-206h-206zM24 792v206h206v-206h-206zM24 1048v206h206v-206h-206zM24 1304v206h206v-206h-206zM24 1560v206h206v-206h-206zM280 24v206h206v-206h-206zM280 792v206h206v-206h-206zM280 1560v206h206v-206h-206zM536 24v206h206v-206h-206zM536 792v206 h206v-206h-206zM536 1560v206h206v-206h-206zM792 24v206h206v-206h-206zM792 792v206h206v-206h-206zM792 1560v206h206v-206h-206zM1048 280v206h206v-206h-206zM1048 536v206h206v-206h-206zM1048 1560v206h206v-206h-206z" />
<glyph unicode="6" d="M24 280v206h206v-206h-206zM24 536v206h206v-206h-206zM24 792v206h206v-206h-206zM24 1048v206h206v-206h-206zM24 1304v206h206v-206h-206zM280 24v206h206v-206h-206zM280 792v206h206v-206h-206zM280 1560v206h206v-206h-206zM536 24v206h206v-206h-206zM536 792v206 h206v-206h-206zM536 1560v206h206v-206h-206zM792 24v206h206v-206h-206zM792 792v206h206v-206h-206zM792 1560v206h206v-206h-206zM1048 280v206h206v-206h-206zM1048 536v206h206v-206h-206zM1048 1304v206h206v-206h-206z" />
<glyph unicode="7" d="M24 1304v206h206v-206h-206zM24 1560v206h206v-206h-206zM280 1560v206h206v-206h-206zM536 24v206h206v-206h-206zM536 280v206h206v-206h-206zM536 536v206h206v-206h-206zM536 1560v206h206v-206h-206zM792 792v206h206v-206h-206zM792 1560v206h206v-206h-206z M1048 1048v206h206v-206h-206zM1048 1304v206h206v-206h-206zM1048 1560v206h206v-206h-206z" />
<glyph unicode="8" d="M24 280v206h206v-206h-206zM24 536v206h206v-206h-206zM24 1048v206h206v-206h-206zM24 1304v206h206v-206h-206zM280 24v206h206v-206h-206zM280 792v206h206v-206h-206zM280 1560v206h206v-206h-206zM536 24v206h206v-206h-206zM536 792v206h206v-206h-206zM536 1560 v206h206v-206h-206zM792 24v206h206v-206h-206zM792 792v206h206v-206h-206zM792 1560v206h206v-206h-206zM1048 280v206h206v-206h-206zM1048 536v206h206v-206h-206zM1048 1048v206h206v-206h-206zM1048 1304v206h206v-206h-206z" />
<glyph unicode="9" d="M24 280v206h206v-206h-206zM24 1048v206h206v-206h-206zM24 1304v206h206v-206h-206zM280 24v206h206v-206h-206zM280 792v206h206v-206h-206zM280 1560v206h206v-206h-206zM536 24v206h206v-206h-206zM536 792v206h206v-206h-206zM536 1560v206h206v-206h-206zM792 24 v206h206v-206h-206zM792 792v206h206v-206h-206zM792 1560v206h206v-206h-206zM1048 280v206h206v-206h-206zM1048 536v206h206v-206h-206zM1048 792v206h206v-206h-206zM1048 1048v206h206v-206h-206zM1048 1304v206h206v-206h-206z" />
<glyph unicode=":" d="M24 24v206h206v-206h-206zM24 280v206h206v-206h-206zM24 1048v206h206v-206h-206zM24 1304v206h206v-206h-206zM280 24v206h206v-206h-206zM280 280v206h206v-206h-206zM280 1048v206h206v-206h-206zM280 1304v206h206v-206h-206z" />
<glyph unicode=";" d="M24 24v206h206v-206h-206zM24 536v206h206v-206h-206zM24 1048v206h206v-206h-206zM24 1304v206h206v-206h-206zM280 280v206h206v-206h-206zM280 536v206h206v-206h-206zM280 1048v206h206v-206h-206zM280 1304v206h206v-206h-206z" />
<glyph unicode="&#x3c;" d="M280 792v206h206v-206h-206zM536 536v206h206v-206h-206zM536 1048v206h206v-206h-206zM792 280v206h206v-206h-206zM792 1304v206h206v-206h-206zM1048 24v206h206v-206h-206zM1048 1560v206h206v-206h-206z" />
<glyph unicode="=" d="M24 280v206h206v-206h-206zM24 1048v206h206v-206h-206zM280 280v206h206v-206h-206zM280 1048v206h206v-206h-206zM536 280v206h206v-206h-206zM536 1048v206h206v-206h-206zM792 280v206h206v-206h-206zM792 1048v206h206v-206h-206zM1048 280v206h206v-206h-206z M1048 1048v206h206v-206h-206z" />
<glyph unicode="&#x3e;" d="M280 24v206h206v-206h-206zM280 1560v206h206v-206h-206zM536 280v206h206v-206h-206zM536 1304v206h206v-206h-206zM792 536v206h206v-206h-206zM792 1048v206h206v-206h-206zM1048 792v206h206v-206h-206z" />
<glyph unicode="?" d="M24 1304v206h206v-206h-206zM280 1560v206h206v-206h-206zM536 24v206h206v-206h-206zM536 536v206h206v-206h-206zM536 792v206h206v-206h-206zM536 1560v206h206v-206h-206zM792 792v206h206v-206h-206zM792 1560v206h206v-206h-206zM1048 1048v206h206v-206h-206z M1048 1304v206h206v-206h-206z" />
<glyph unicode="@" d="M24 280v206h206v-206h-206zM24 536v206h206v-206h-206zM24 792v206h206v-206h-206zM24 1048v206h206v-206h-206zM24 1304v206h206v-206h-206zM280 24v206h206v-206h-206zM280 1560v206h206v-206h-206zM536 24v206h206v-206h-206zM536 536v206h206v-206h-206zM536 792v206 h206v-206h-206zM536 1048v206h206v-206h-206zM536 1560v206h206v-206h-206zM792 24v206h206v-206h-206zM792 536v206h206v-206h-206zM792 1048v206h206v-206h-206zM792 1560v206h206v-206h-206zM1048 24v206h206v-206h-206zM1048 536v206h206v-206h-206zM1048 792v206h206 v-206h-206zM1048 1048v206h206v-206h-206zM1048 1304v206h206v-206h-206z" />
<glyph unicode="A" d="M24 24v206h206v-206h-206zM24 280v206h206v-206h-206zM24 536v206h206v-206h-206zM24 792v206h206v-206h-206zM24 1048v206h206v-206h-206zM280 792v206h206v-206h-206zM280 1304v206h206v-206h-206zM536 792v206h206v-206h-206zM536 1560v206h206v-206h-206zM792 792 v206h206v-206h-206zM792 1304v206h206v-206h-206zM1048 24v206h206v-206h-206zM1048 280v206h206v-206h-206zM1048 536v206h206v-206h-206zM1048 792v206h206v-206h-206zM1048 1048v206h206v-206h-206z" />
<glyph unicode="B" d="M24 24v206h206v-206h-206zM24 280v206h206v-206h-206zM24 536v206h206v-206h-206zM24 792v206h206v-206h-206zM24 1048v206h206v-206h-206zM24 1304v206h206v-206h-206zM24 1560v206h206v-206h-206zM280 24v206h206v-206h-206zM280 792v206h206v-206h-206zM280 1560v206 h206v-206h-206zM536 24v206h206v-206h-206zM536 792v206h206v-206h-206zM536 1560v206h206v-206h-206zM792 24v206h206v-206h-206zM792 792v206h206v-206h-206zM792 1560v206h206v-206h-206zM1048 280v206h206v-206h-206zM1048 536v206h206v-206h-206zM1048 1048v206h206 v-206h-206zM1048 1304v206h206v-206h-206z" />
<glyph unicode="C" d="M24 280v206h206v-206h-206zM24 536v206h206v-206h-206zM24 792v206h206v-206h-206zM24 1048v206h206v-206h-206zM24 1304v206h206v-206h-206zM280 24v206h206v-206h-206zM280 1560v206h206v-206h-206zM536 24v206h206v-206h-206zM536 1560v206h206v-206h-206zM792 24v206 h206v-206h-206zM792 1560v206h206v-206h-206zM1048 280v206h206v-206h-206zM1048 1304v206h206v-206h-206z" />
<glyph unicode="D" d="M24 24v206h206v-206h-206zM24 280v206h206v-206h-206zM24 536v206h206v-206h-206zM24 792v206h206v-206h-206zM24 1048v206h206v-206h-206zM24 1304v206h206v-206h-206zM24 1560v206h206v-206h-206zM280 24v206h206v-206h-206zM280 1560v206h206v-206h-206zM536 24v206 h206v-206h-206zM536 1560v206h206v-206h-206zM792 280v206h206v-206h-206zM792 1304v206h206v-206h-206zM1048 536v206h206v-206h-206zM1048 792v206h206v-206h-206zM1048 1048v206h206v-206h-206z" />
<glyph unicode="E" d="M24 24v206h206v-206h-206zM24 280v206h206v-206h-206zM24 536v206h206v-206h-206zM24 792v206h206v-206h-206zM24 1048v206h206v-206h-206zM24 1304v206h206v-206h-206zM24 1560v206h206v-206h-206zM280 24v206h206v-206h-206zM280 792v206h206v-206h-206zM280 1560v206 h206v-206h-206zM536 24v206h206v-206h-206zM536 792v206h206v-206h-206zM536 1560v206h206v-206h-206zM792 24v206h206v-206h-206zM792 1560v206h206v-206h-206zM1048 24v206h206v-206h-206zM1048 1560v206h206v-206h-206z" />
<glyph unicode="F" d="M24 24v206h206v-206h-206zM24 280v206h206v-206h-206zM24 536v206h206v-206h-206zM24 792v206h206v-206h-206zM24 1048v206h206v-206h-206zM24 1304v206h206v-206h-206zM24 1560v206h206v-206h-206zM280 792v206h206v-206h-206zM280 1560v206h206v-206h-206zM536 792v206 h206v-206h-206zM536 1560v206h206v-206h-206zM792 1560v206h206v-206h-206zM1048 1560v206h206v-206h-206z" />
<glyph unicode="G" d="M24 280v206h206v-206h-206zM24 536v206h206v-206h-206zM24 792v206h206v-206h-206zM24 1048v206h206v-206h-206zM24 1304v206h206v-206h-206zM280 24v206h206v-206h-206zM280 1560v206h206v-206h-206zM536 24v206h206v-206h-206zM536 792v206h206v-206h-206zM536 1560 v206h206v-206h-206zM792 24v206h206v-206h-206zM792 792v206h206v-206h-206zM792 1560v206h206v-206h-206zM1048 24v206h206v-206h-206zM1048 280v206h206v-206h-206zM1048 536v206h206v-206h-206zM1048 792v206h206v-206h-206zM1048 1304v206h206v-206h-206z" />
<glyph unicode="H" d="M24 24v206h206v-206h-206zM24 280v206h206v-206h-206zM24 536v206h206v-206h-206zM24 792v206h206v-206h-206zM24 1048v206h206v-206h-206zM24 1304v206h206v-206h-206zM24 1560v206h206v-206h-206zM280 792v206h206v-206h-206zM536 792v206h206v-206h-206zM792 792v206 h206v-206h-206zM1048 24v206h206v-206h-206zM1048 280v206h206v-206h-206zM1048 536v206h206v-206h-206zM1048 792v206h206v-206h-206zM1048 1048v206h206v-206h-206zM1048 1304v206h206v-206h-206zM1048 1560v206h206v-206h-206z" />
<glyph unicode="I" d="M280 24v206h206v-206h-206zM280 1560v206h206v-206h-206zM536 24v206h206v-206h-206zM536 280v206h206v-206h-206zM536 536v206h206v-206h-206zM536 792v206h206v-206h-206zM536 1048v206h206v-206h-206zM536 1304v206h206v-206h-206zM536 1560v206h206v-206h-206z M792 24v206h206v-206h-206zM792 1560v206h206v-206h-206z" />
<glyph unicode="J" d="M24 280v206h206v-206h-206zM24 536v206h206v-206h-206zM280 24v206h206v-206h-206zM536 24v206h206v-206h-206zM792 24v206h206v-206h-206zM1048 280v206h206v-206h-206zM1048 536v206h206v-206h-206zM1048 792v206h206v-206h-206zM1048 1048v206h206v-206h-206z M1048 1304v206h206v-206h-206zM1048 1560v206h206v-206h-206z" />
<glyph unicode="K" d="M24 24v206h206v-206h-206zM24 280v206h206v-206h-206zM24 536v206h206v-206h-206zM24 792v206h206v-206h-206zM24 1048v206h206v-206h-206zM24 1304v206h206v-206h-206zM24 1560v206h206v-206h-206zM280 792v206h206v-206h-206zM536 792v206h206v-206h-206zM536 1048v206 h206v-206h-206zM792 536v206h206v-206h-206zM792 1304v206h206v-206h-206zM1048 24v206h206v-206h-206zM1048 280v206h206v-206h-206zM1048 1560v206h206v-206h-206z" />
<glyph unicode="L" d="M24 24v206h206v-206h-206zM24 280v206h206v-206h-206zM24 536v206h206v-206h-206zM24 792v206h206v-206h-206zM24 1048v206h206v-206h-206zM24 1304v206h206v-206h-206zM24 1560v206h206v-206h-206zM280 24v206h206v-206h-206zM536 24v206h206v-206h-206zM792 24v206h206 v-206h-206zM1048 24v206h206v-206h-206z" />
<glyph unicode="M" d="M24 24v206h206v-206h-206zM24 280v206h206v-206h-206zM24 536v206h206v-206h-206zM24 792v206h206v-206h-206zM24 1048v206h206v-206h-206zM24 1304v206h206v-206h-206zM24 1560v206h206v-206h-206zM280 1304v206h206v-206h-206zM536 536v206h206v-206h-206zM536 792v206 h206v-206h-206zM536 1048v206h206v-206h-206zM792 1304v206h206v-206h-206zM1048 24v206h206v-206h-206zM1048 280v206h206v-206h-206zM1048 536v206h206v-206h-206zM1048 792v206h206v-206h-206zM1048 1048v206h206v-206h-206zM1048 1304v206h206v-206h-206zM1048 1560v206 h206v-206h-206z" />
<glyph unicode="N" d="M24 24v206h206v-206h-206zM24 280v206h206v-206h-206zM24 536v206h206v-206h-206zM24 792v206h206v-206h-206zM24 1048v206h206v-206h-206zM24 1304v206h206v-206h-206zM24 1560v206h206v-206h-206zM280 1304v206h206v-206h-206zM536 1048v206h206v-206h-206zM792 792 v206h206v-206h-206zM1048 24v206h206v-206h-206zM1048 280v206h206v-206h-206zM1048 536v206h206v-206h-206zM1048 792v206h206v-206h-206zM1048 1048v206h206v-206h-206zM1048 1304v206h206v-206h-206zM1048 1560v206h206v-206h-206z" />
<glyph unicode="O" d="M24 280v206h206v-206h-206zM24 536v206h206v-206h-206zM24 792v206h206v-206h-206zM24 1048v206h206v-206h-206zM24 1304v206h206v-206h-206zM280 24v206h206v-206h-206zM280 1560v206h206v-206h-206zM536 24v206h206v-206h-206zM536 1560v206h206v-206h-206zM792 24v206 h206v-206h-206zM792 1560v206h206v-206h-206zM1048 280v206h206v-206h-206zM1048 536v206h206v-206h-206zM1048 792v206h206v-206h-206zM1048 1048v206h206v-206h-206zM1048 1304v206h206v-206h-206z" />
<glyph unicode="P" d="M24 24v206h206v-206h-206zM24 280v206h206v-206h-206zM24 536v206h206v-206h-206zM24 792v206h206v-206h-206zM24 1048v206h206v-206h-206zM24 1304v206h206v-206h-206zM24 1560v206h206v-206h-206zM280 792v206h206v-206h-206zM280 1560v206h206v-206h-206zM536 792v206 h206v-206h-206zM536 1560v206h206v-206h-206zM792 792v206h206v-206h-206zM792 1560v206h206v-206h-206zM1048 1048v206h206v-206h-206zM1048 1304v206h206v-206h-206z" />
<glyph unicode="Q" d="M24 280v206h206v-206h-206zM24 536v206h206v-206h-206zM24 792v206h206v-206h-206zM24 1048v206h206v-206h-206zM24 1304v206h206v-206h-206zM280 24v206h206v-206h-206zM280 1560v206h206v-206h-206zM536 24v206h206v-206h-206zM536 536v206h206v-206h-206zM536 1560 v206h206v-206h-206zM792 24v206h206v-206h-206zM792 280v206h206v-206h-206zM792 1560v206h206v-206h-206zM1048 24v206h206v-206h-206zM1048 280v206h206v-206h-206zM1048 536v206h206v-206h-206zM1048 792v206h206v-206h-206zM1048 1048v206h206v-206h-206zM1048 1304v206 h206v-206h-206z" />
<glyph unicode="R" d="M24 24v206h206v-206h-206zM24 280v206h206v-206h-206zM24 536v206h206v-206h-206zM24 792v206h206v-206h-206zM24 1048v206h206v-206h-206zM24 1304v206h206v-206h-206zM24 1560v206h206v-206h-206zM280 792v206h206v-206h-206zM280 1560v206h206v-206h-206zM536 792v206 h206v-206h-206zM536 1560v206h206v-206h-206zM792 792v206h206v-206h-206zM792 1560v206h206v-206h-206zM1048 24v206h206v-206h-206zM1048 280v206h206v-206h-206zM1048 536v206h206v-206h-206zM1048 1048v206h206v-206h-206zM1048 1304v206h206v-206h-206z" />
<glyph unicode="S" d="M24 280v206h206v-206h-206zM24 1048v206h206v-206h-206zM24 1304v206h206v-206h-206zM280 24v206h206v-206h-206zM280 792v206h206v-206h-206zM280 1560v206h206v-206h-206zM536 24v206h206v-206h-206zM536 792v206h206v-206h-206zM536 1560v206h206v-206h-206zM792 24 v206h206v-206h-206zM792 792v206h206v-206h-206zM792 1560v206h206v-206h-206zM1048 280v206h206v-206h-206zM1048 536v206h206v-206h-206zM1048 1304v206h206v-206h-206z" />
<glyph unicode="T" d="M24 1560v206h206v-206h-206zM280 1560v206h206v-206h-206zM536 24v206h206v-206h-206zM536 280v206h206v-206h-206zM536 536v206h206v-206h-206zM536 792v206h206v-206h-206zM536 1048v206h206v-206h-206zM536 1304v206h206v-206h-206zM536 1560v206h206v-206h-206z M792 1560v206h206v-206h-206zM1048 1560v206h206v-206h-206z" />
<glyph unicode="U" d="M24 280v206h206v-206h-206zM24 536v206h206v-206h-206zM24 792v206h206v-206h-206zM24 1048v206h206v-206h-206zM24 1304v206h206v-206h-206zM24 1560v206h206v-206h-206zM280 24v206h206v-206h-206zM536 24v206h206v-206h-206zM792 24v206h206v-206h-206zM1048 280v206 h206v-206h-206zM1048 536v206h206v-206h-206zM1048 792v206h206v-206h-206zM1048 1048v206h206v-206h-206zM1048 1304v206h206v-206h-206zM1048 1560v206h206v-206h-206z" />
<glyph unicode="V" d="M24 536v206h206v-206h-206zM24 792v206h206v-206h-206zM24 1048v206h206v-206h-206zM24 1304v206h206v-206h-206zM24 1560v206h206v-206h-206zM280 280v206h206v-206h-206zM536 24v206h206v-206h-206zM792 280v206h206v-206h-206zM1048 536v206h206v-206h-206zM1048 792 v206h206v-206h-206zM1048 1048v206h206v-206h-206zM1048 1304v206h206v-206h-206zM1048 1560v206h206v-206h-206z" />
<glyph unicode="W" d="M24 24v206h206v-206h-206zM24 280v206h206v-206h-206zM24 536v206h206v-206h-206zM24 792v206h206v-206h-206zM24 1048v206h206v-206h-206zM24 1304v206h206v-206h-206zM24 1560v206h206v-206h-206zM280 24v206h206v-206h-206zM536 280v206h206v-206h-206zM536 536v206 h206v-206h-206zM536 792v206h206v-206h-206zM792 24v206h206v-206h-206zM1048 24v206h206v-206h-206zM1048 280v206h206v-206h-206zM1048 536v206h206v-206h-206zM1048 792v206h206v-206h-206zM1048 1048v206h206v-206h-206zM1048 1304v206h206v-206h-206zM1048 1560v206 h206v-206h-206z" />
<glyph unicode="X" d="M24 24v206h206v-206h-206zM24 280v206h206v-206h-206zM24 1304v206h206v-206h-206zM24 1560v206h206v-206h-206zM280 536v206h206v-206h-206zM280 1048v206h206v-206h-206zM536 792v206h206v-206h-206zM792 536v206h206v-206h-206zM792 1048v206h206v-206h-206zM1048 24 v206h206v-206h-206zM1048 280v206h206v-206h-206zM1048 1304v206h206v-206h-206zM1048 1560v206h206v-206h-206z" />
<glyph unicode="Y" d="M24 1304v206h206v-206h-206zM24 1560v206h206v-206h-206zM280 1048v206h206v-206h-206zM536 24v206h206v-206h-206zM536 280v206h206v-206h-206zM536 536v206h206v-206h-206zM536 792v206h206v-206h-206zM792 1048v206h206v-206h-206zM1048 1304v206h206v-206h-206z M1048 1560v206h206v-206h-206z" />
<glyph unicode="Z" d="M24 24v206h206v-206h-206zM24 280v206h206v-206h-206zM24 1560v206h206v-206h-206zM280 24v206h206v-206h-206zM280 536v206h206v-206h-206zM280 1560v206h206v-206h-206zM536 24v206h206v-206h-206zM536 792v206h206v-206h-206zM536 1560v206h206v-206h-206zM792 24v206 h206v-206h-206zM792 1048v206h206v-206h-206zM792 1560v206h206v-206h-206zM1048 24v206h206v-206h-206zM1048 1304v206h206v-206h-206zM1048 1560v206h206v-206h-206z" />
<glyph unicode="[" d="M280 24v206h206v-206h-206zM280 280v206h206v-206h-206zM280 536v206h206v-206h-206zM280 792v206h206v-206h-206zM280 1048v206h206v-206h-206zM280 1304v206h206v-206h-206zM280 1560v206h206v-206h-206zM536 24v206h206v-206h-206zM536 1560v206h206v-206h-206z M792 24v206h206v-206h-206zM792 1560v206h206v-206h-206z" />
<glyph unicode="\" d="M24 1048v206h206v-206h-206zM280 792v206h206v-206h-206zM536 536v206h206v-206h-206zM792 280v206h206v-206h-206zM1048 24v206h206v-206h-206z" />
<glyph unicode="]" d="M280 24v206h206v-206h-206zM280 1560v206h206v-206h-206zM536 24v206h206v-206h-206zM536 1560v206h206v-206h-206zM792 24v206h206v-206h-206zM792 280v206h206v-206h-206zM792 536v206h206v-206h-206zM792 792v206h206v-206h-206zM792 1048v206h206v-206h-206z M792 1304v206h206v-206h-206zM792 1560v206h206v-206h-206z" />
<glyph unicode="^" d="M280 1048v206h206v-206h-206zM536 1304v206h206v-206h-206zM792 1560v206h206v-206h-206zM1048 1304v206h206v-206h-206zM1304 1048v206h206v-206h-206z" />
<glyph unicode="_" d="M24 24v206h206v-206h-206zM280 24v206h206v-206h-206zM536 24v206h206v-206h-206zM792 24v206h206v-206h-206zM1048 24v206h206v-206h-206z" />
<glyph unicode="`" d="M536 1560v206h206v-206h-206zM792 1304v206h206v-206h-206z" />
<glyph unicode="a" d="M24 280v206h206v-206h-206zM280 24v206h206v-206h-206zM280 536v206h206v-206h-206zM280 1048v206h206v-206h-206zM536 24v206h206v-206h-206zM536 536v206h206v-206h-206zM536 1048v206h206v-206h-206zM792 24v206h206v-206h-206zM792 536v206h206v-206h-206zM792 1048 v206h206v-206h-206zM1048 24v206h206v-206h-206zM1048 280v206h206v-206h-206zM1048 536v206h206v-206h-206zM1048 792v206h206v-206h-206z" />
<glyph unicode="b" d="M24 24v206h206v-206h-206zM24 280v206h206v-206h-206zM24 536v206h206v-206h-206zM24 792v206h206v-206h-206zM24 1048v206h206v-206h-206zM24 1304v206h206v-206h-206zM24 1560v206h206v-206h-206zM280 24v206h206v-206h-206zM280 1048v206h206v-206h-206zM536 24v206 h206v-206h-206zM536 1048v206h206v-206h-206zM792 24v206h206v-206h-206zM792 1048v206h206v-206h-206zM1048 280v206h206v-206h-206zM1048 536v206h206v-206h-206zM1048 792v206h206v-206h-206z" />
<glyph unicode="c" d="M24 280v206h206v-206h-206zM24 536v206h206v-206h-206zM24 792v206h206v-206h-206zM280 24v206h206v-206h-206zM280 1048v206h206v-206h-206zM536 24v206h206v-206h-206zM536 1048v206h206v-206h-206zM792 24v206h206v-206h-206zM792 1048v206h206v-206h-206zM1048 792 v206h206v-206h-206z" />
<glyph unicode="d" d="M24 280v206h206v-206h-206zM24 536v206h206v-206h-206zM24 792v206h206v-206h-206zM280 24v206h206v-206h-206zM280 1048v206h206v-206h-206zM536 24v206h206v-206h-206zM536 1048v206h206v-206h-206zM792 24v206h206v-206h-206zM792 1048v206h206v-206h-206zM1048 24 v206h206v-206h-206zM1048 280v206h206v-206h-206zM1048 536v206h206v-206h-206zM1048 792v206h206v-206h-206zM1048 1048v206h206v-206h-206zM1048 1304v206h206v-206h-206zM1048 1560v206h206v-206h-206z" />
<glyph unicode="e" d="M24 280v206h206v-206h-206zM24 536v206h206v-206h-206zM24 792v206h206v-206h-206zM280 24v206h206v-206h-206zM280 536v206h206v-206h-206zM280 1048v206h206v-206h-206zM536 24v206h206v-206h-206zM536 536v206h206v-206h-206zM536 1048v206h206v-206h-206zM792 24v206 h206v-206h-206zM792 536v206h206v-206h-206zM792 1048v206h206v-206h-206zM1048 536v206h206v-206h-206zM1048 792v206h206v-206h-206z" />
<glyph unicode="f" d="M24 792v206h206v-206h-206zM280 24v206h206v-206h-206zM280 280v206h206v-206h-206zM280 536v206h206v-206h-206zM280 792v206h206v-206h-206zM280 1048v206h206v-206h-206zM280 1304v206h206v-206h-206zM536 792v206h206v-206h-206zM536 1560v206h206v-206h-206z M792 792v206h206v-206h-206zM792 1560v206h206v-206h-206zM1048 1304v206h206v-206h-206z" />
<glyph unicode="g" d="M24 24v206h206v-206h-206zM24 792v206h206v-206h-206zM280 24v206h206v-206h-206zM280 536v206h206v-206h-206zM280 1048v206h206v-206h-206zM536 24v206h206v-206h-206zM536 536v206h206v-206h-206zM536 1048v206h206v-206h-206zM792 24v206h206v-206h-206zM792 536v206 h206v-206h-206zM792 1048v206h206v-206h-206zM1048 280v206h206v-206h-206zM1048 536v206h206v-206h-206zM1048 792v206h206v-206h-206z" />
<glyph unicode="h" d="M24 24v206h206v-206h-206zM24 280v206h206v-206h-206zM24 536v206h206v-206h-206zM24 792v206h206v-206h-206zM24 1048v206h206v-206h-206zM24 1304v206h206v-206h-206zM24 1560v206h206v-206h-206zM280 792v206h206v-206h-206zM536 792v206h206v-206h-206zM792 792v206 h206v-206h-206zM1048 24v206h206v-206h-206zM1048 280v206h206v-206h-206zM1048 536v206h206v-206h-206z" />
<glyph unicode="i" d="M280 24v206h206v-206h-206zM280 792v206h206v-206h-206zM536 24v206h206v-206h-206zM536 280v206h206v-206h-206zM536 536v206h206v-206h-206zM536 792v206h206v-206h-206zM536 1304v206h206v-206h-206zM792 24v206h206v-206h-206z" />
<glyph unicode="j" d="M24 280v206h206v-206h-206zM280 24v206h206v-206h-206zM536 24v206h206v-206h-206zM792 24v206h206v-206h-206zM792 792v206h206v-206h-206zM1048 280v206h206v-206h-206zM1048 536v206h206v-206h-206zM1048 792v206h206v-206h-206zM1048 1304v206h206v-206h-206z" />
<glyph unicode="k" d="M24 24v206h206v-206h-206zM24 280v206h206v-206h-206zM24 536v206h206v-206h-206zM24 792v206h206v-206h-206zM24 1048v206h206v-206h-206zM24 1304v206h206v-206h-206zM24 1560v206h206v-206h-206zM280 536v206h206v-206h-206zM536 280v206h206v-206h-206zM536 792v206 h206v-206h-206zM792 24v206h206v-206h-206zM792 1048v206h206v-206h-206z" />
<glyph unicode="l" d="M24 280v206h206v-206h-206zM24 536v206h206v-206h-206zM24 792v206h206v-206h-206zM24 1048v206h206v-206h-206zM24 1304v206h206v-206h-206zM24 1560v206h206v-206h-206zM280 24v206h206v-206h-206zM536 24v206h206v-206h-206z" />
<glyph unicode="m" d="M24 24v206h206v-206h-206zM24 280v206h206v-206h-206zM24 536v206h206v-206h-206zM24 792v206h206v-206h-206zM24 1048v206h206v-206h-206zM280 1048v206h206v-206h-206zM536 280v206h206v-206h-206zM536 536v206h206v-206h-206zM536 792v206h206v-206h-206zM792 1048 v206h206v-206h-206zM1048 24v206h206v-206h-206zM1048 280v206h206v-206h-206zM1048 536v206h206v-206h-206zM1048 792v206h206v-206h-206z" />
<glyph unicode="n" d="M24 24v206h206v-206h-206zM24 280v206h206v-206h-206zM24 536v206h206v-206h-206zM24 792v206h206v-206h-206zM24 1048v206h206v-206h-206zM280 1048v206h206v-206h-206zM536 1048v206h206v-206h-206zM792 1048v206h206v-206h-206zM1048 24v206h206v-206h-206zM1048 280 v206h206v-206h-206zM1048 536v206h206v-206h-206zM1048 792v206h206v-206h-206z" />
<glyph unicode="o" d="M24 280v206h206v-206h-206zM24 536v206h206v-206h-206zM24 792v206h206v-206h-206zM280 24v206h206v-206h-206zM280 1048v206h206v-206h-206zM536 24v206h206v-206h-206zM536 1048v206h206v-206h-206zM792 24v206h206v-206h-206zM792 1048v206h206v-206h-206zM1048 280 v206h206v-206h-206zM1048 536v206h206v-206h-206zM1048 792v206h206v-206h-206z" />
<glyph unicode="p" d="M24 24v206h206v-206h-206zM24 280v206h206v-206h-206zM24 536v206h206v-206h-206zM24 792v206h206v-206h-206zM24 1048v206h206v-206h-206zM280 536v206h206v-206h-206zM280 1048v206h206v-206h-206zM536 536v206h206v-206h-206zM536 1048v206h206v-206h-206zM792 536 v206h206v-206h-206zM792 1048v206h206v-206h-206zM1048 792v206h206v-206h-206z" />
<glyph unicode="q" d="M24 792v206h206v-206h-206zM280 536v206h206v-206h-206zM280 1048v206h206v-206h-206zM536 536v206h206v-206h-206zM536 1048v206h206v-206h-206zM792 24v206h206v-206h-206zM792 280v206h206v-206h-206zM792 536v206h206v-206h-206zM792 792v206h206v-206h-206z M792 1048v206h206v-206h-206zM1048 24v206h206v-206h-206z" />
<glyph unicode="r" d="M24 24v206h206v-206h-206zM24 280v206h206v-206h-206zM24 536v206h206v-206h-206zM24 792v206h206v-206h-206zM24 1048v206h206v-206h-206zM280 1048v206h206v-206h-206zM536 1048v206h206v-206h-206zM792 1048v206h206v-206h-206zM1048 792v206h206v-206h-206z" />
<glyph unicode="s" d="M24 24v206h206v-206h-206zM24 792v206h206v-206h-206zM280 24v206h206v-206h-206zM280 536v206h206v-206h-206zM280 1048v206h206v-206h-206zM536 24v206h206v-206h-206zM536 536v206h206v-206h-206zM536 1048v206h206v-206h-206zM792 24v206h206v-206h-206zM792 536v206 h206v-206h-206zM792 1048v206h206v-206h-206zM1048 280v206h206v-206h-206zM1048 1048v206h206v-206h-206z" />
<glyph unicode="t" d="M24 1048v206h206v-206h-206zM280 1048v206h206v-206h-206zM536 24v206h206v-206h-206zM536 280v206h206v-206h-206zM536 536v206h206v-206h-206zM536 792v206h206v-206h-206zM536 1048v206h206v-206h-206zM536 1304v206h206v-206h-206zM536 1560v206h206v-206h-206z M792 24v206h206v-206h-206zM792 1048v206h206v-206h-206zM1048 24v206h206v-206h-206zM1048 1048v206h206v-206h-206z" />
<glyph unicode="u" d="M24 280v206h206v-206h-206zM24 536v206h206v-206h-206zM24 792v206h206v-206h-206zM24 1048v206h206v-206h-206zM280 24v206h206v-206h-206zM536 24v206h206v-206h-206zM792 24v206h206v-206h-206zM1048 24v206h206v-206h-206zM1048 280v206h206v-206h-206zM1048 536v206 h206v-206h-206zM1048 792v206h206v-206h-206zM1048 1048v206h206v-206h-206z" />
<glyph unicode="v" d="M24 536v206h206v-206h-206zM24 792v206h206v-206h-206zM24 1048v206h206v-206h-206zM280 280v206h206v-206h-206zM536 24v206h206v-206h-206zM792 280v206h206v-206h-206zM1048 536v206h206v-206h-206zM1048 792v206h206v-206h-206zM1048 1048v206h206v-206h-206z" />
<glyph unicode="w" d="M24 24v206h206v-206h-206zM24 280v206h206v-206h-206zM24 536v206h206v-206h-206zM24 792v206h206v-206h-206zM24 1048v206h206v-206h-206zM280 24v206h206v-206h-206zM536 280v206h206v-206h-206zM536 536v206h206v-206h-206zM536 792v206h206v-206h-206zM792 24v206 h206v-206h-206zM1048 24v206h206v-206h-206zM1048 280v206h206v-206h-206zM1048 536v206h206v-206h-206zM1048 792v206h206v-206h-206zM1048 1048v206h206v-206h-206z" />
<glyph unicode="x" d="M24 24v206h206v-206h-206zM24 1048v206h206v-206h-206zM280 280v206h206v-206h-206zM280 792v206h206v-206h-206zM536 536v206h206v-206h-206zM792 280v206h206v-206h-206zM792 792v206h206v-206h-206zM1048 24v206h206v-206h-206zM1048 1048v206h206v-206h-206z" />
<glyph unicode="y" d="M24 792v206h206v-206h-206zM24 1048v206h206v-206h-206zM280 24v206h206v-206h-206zM280 536v206h206v-206h-206zM536 24v206h206v-206h-206zM536 536v206h206v-206h-206zM792 24v206h206v-206h-206zM792 536v206h206v-206h-206zM1048 280v206h206v-206h-206zM1048 536 v206h206v-206h-206zM1048 792v206h206v-206h-206zM1048 1048v206h206v-206h-206z" />
<glyph unicode="z" d="M24 24v206h206v-206h-206zM24 1048v206h206v-206h-206zM280 24v206h206v-206h-206zM280 280v206h206v-206h-206zM280 1048v206h206v-206h-206zM536 24v206h206v-206h-206zM536 536v206h206v-206h-206zM536 1048v206h206v-206h-206zM792 24v206h206v-206h-206zM792 792 v206h206v-206h-206zM792 1048v206h206v-206h-206zM1048 24v206h206v-206h-206zM1048 1048v206h206v-206h-206z" />
<glyph unicode="{" d="M280 792v206h206v-206h-206zM536 280v206h206v-206h-206zM536 536v206h206v-206h-206zM536 1048v206h206v-206h-206zM536 1304v206h206v-206h-206zM792 24v206h206v-206h-206zM792 1560v206h206v-206h-206z" />
<glyph unicode="|" d="M536 24v206h206v-206h-206zM536 280v206h206v-206h-206zM536 536v206h206v-206h-206zM536 792v206h206v-206h-206zM536 1048v206h206v-206h-206zM536 1304v206h206v-206h-206zM536 1560v206h206v-206h-206z" />
<glyph unicode="}" d="M280 24v206h206v-206h-206zM280 1560v206h206v-206h-206zM536 280v206h206v-206h-206zM536 536v206h206v-206h-206zM536 1048v206h206v-206h-206zM536 1304v206h206v-206h-206zM792 792v206h206v-206h-206z" />
<glyph unicode="~" d="M280 1048v206h206v-206h-206zM536 1304v206h206v-206h-206zM792 1048v206h206v-206h-206zM1048 792v206h206v-206h-206zM1304 1048v206h206v-206h-206z" />
<glyph unicode="&#xa0;" />
<glyph unicode="&#xad;" d="M24 792v206h206v-206h-206zM280 792v206h206v-206h-206zM536 792v206h206v-206h-206zM792 792v206h206v-206h-206zM1048 792v206h206v-206h-206z" />
<glyph unicode="&#x2000;" horiz-adv-x="1011" />
<glyph unicode="&#x2001;" horiz-adv-x="2022" />
<glyph unicode="&#x2002;" horiz-adv-x="1011" />
<glyph unicode="&#x2003;" horiz-adv-x="2022" />
<glyph unicode="&#x2004;" horiz-adv-x="674" />
<glyph unicode="&#x2005;" horiz-adv-x="505" />
<glyph unicode="&#x2006;" horiz-adv-x="337" />
<glyph unicode="&#x2007;" horiz-adv-x="337" />
<glyph unicode="&#x2008;" horiz-adv-x="252" />
<glyph unicode="&#x2009;" horiz-adv-x="404" />
<glyph unicode="&#x200a;" horiz-adv-x="112" />
<glyph unicode="&#x2010;" d="M24 792v206h206v-206h-206zM280 792v206h206v-206h-206zM536 792v206h206v-206h-206zM792 792v206h206v-206h-206zM1048 792v206h206v-206h-206z" />
<glyph unicode="&#x2011;" d="M24 792v206h206v-206h-206zM280 792v206h206v-206h-206zM536 792v206h206v-206h-206zM792 792v206h206v-206h-206zM1048 792v206h206v-206h-206z" />
<glyph unicode="&#x2012;" d="M24 792v206h206v-206h-206zM280 792v206h206v-206h-206zM536 792v206h206v-206h-206zM792 792v206h206v-206h-206zM1048 792v206h206v-206h-206z" />
<glyph unicode="&#x2013;" horiz-adv-x="1600" d="M24 792v206h171v-206h-171zM237 792v206h172v-206h-172zM450 792v206h172v-206h-172zM663 792v206h172v-206h-172zM877 792v206h171v-206h-171z" />
<glyph unicode="&#x2014;" horiz-adv-x="2624" d="M24 792v206h343v-206h-343zM450 792v206h343v-206h-343zM877 792v206h342v-206h-342zM1303 792v206h343v-206h-343zM1729 792v206h343v-206h-343z" />
<glyph unicode="&#x2018;" d="M792 1560v206h206v-206h-206zM792 1816v206h206v-206h-206z" />
<glyph unicode="&#x2019;" d="M792 1560v206h206v-206h-206zM792 1816v206h206v-206h-206z" />
<glyph unicode="&#x201c;" d="M536 1560v206h206v-206h-206zM536 1816v206h206v-206h-206zM1048 1560v206h206v-206h-206zM1048 1816v206h206v-206h-206z" />
<glyph unicode="&#x201d;" d="M536 1560v206h206v-206h-206zM536 1816v206h206v-206h-206zM1048 1560v206h206v-206h-206zM1048 1816v206h206v-206h-206z" />
<glyph unicode="&#x202f;" horiz-adv-x="404" />
<glyph unicode="&#x205f;" horiz-adv-x="505" />
<glyph unicode="&#xe000;" horiz-adv-x="1250" d="M0 0v1250h1250v-1250h-1250z" />
</font>
</defs>
</svg>
