<?xml version="1.0" standalone="no"?>
<!DOCTYPE svg PUBLIC "-//W3C//DTD SVG 1.1//EN" "http://www.w3.org/Graphics/SVG/1.1/DTD/svg11.dtd" >
<svg xmlns="http://www.w3.org/2000/svg">
<metadata></metadata>
<defs>
<font id="erbos_draco_monospaced_nbpRg" horiz-adv-x="904" >
<font-face units-per-em="2048" ascent="1638" descent="-410" />
<missing-glyph horiz-adv-x="500" />
<glyph horiz-adv-x="2048" />
<glyph horiz-adv-x="2048" />
<glyph unicode="&#xd;" />
<glyph unicode=" " d="M0 0v1152h896v-1152h-896z" />
<glyph unicode="!" d="M0 0v1152h896v-1152h-896zM396 140h102v102h-102v-102zM396 396h102v102h-102v-102zM396 524h102v102h-102v-102zM396 652h102v102h-102v-102zM396 780h102v102h-102v-102zM396 908h102v102h-102v-102z" />
<glyph unicode="&#x22;" d="M0 0v1152h896v-1152h-896zM268 780h102v102h-102v-102zM268 908h102v102h-102v-102zM524 780h102v102h-102v-102zM524 908h102v102h-102v-102z" />
<glyph unicode="#" d="M0 0v1152h896v-1152h-896zM140 396h102v102h-102v-102zM140 652h102v102h-102v-102zM268 268h102v102h-102v-102zM268 396h102v102h-102v-102zM268 524h102v102h-102v-102zM268 652h102v102h-102v-102zM268 780h102v102h-102v-102zM396 396h102v102h-102v-102zM396 652 h102v102h-102v-102zM524 268h102v102h-102v-102zM524 396h102v102h-102v-102zM524 524h102v102h-102v-102zM524 652h102v102h-102v-102zM524 780h102v102h-102v-102zM652 396h102v102h-102v-102zM652 652h102v102h-102v-102z" />
<glyph unicode="$" d="M0 0v1152h896v-1152h-896zM140 268h102v102h-102v-102zM140 652h102v102h-102v-102zM268 268h102v102h-102v-102zM268 524h102v102h-102v-102zM268 780h102v102h-102v-102zM396 140h102v102h-102v-102zM396 268h102v102h-102v-102zM396 396h102v102h-102v-102zM396 524 h102v102h-102v-102zM396 652h102v102h-102v-102zM396 780h102v102h-102v-102zM396 908h102v102h-102v-102zM524 268h102v102h-102v-102zM524 524h102v102h-102v-102zM524 780h102v102h-102v-102zM652 396h102v102h-102v-102zM652 780h102v102h-102v-102z" />
<glyph unicode="%" d="M0 0v1152h896v-1152h-896zM140 268h102v102h-102v-102zM140 652h102v102h-102v-102zM140 780h102v102h-102v-102zM268 396h102v102h-102v-102zM268 652h102v102h-102v-102zM268 780h102v102h-102v-102zM396 524h102v102h-102v-102zM524 268h102v102h-102v-102zM524 396 h102v102h-102v-102zM524 652h102v102h-102v-102zM652 268h102v102h-102v-102zM652 396h102v102h-102v-102zM652 780h102v102h-102v-102z" />
<glyph unicode="&#x26;" d="M0 0v1152h896v-1152h-896zM140 268h102v102h-102v-102zM140 396h102v102h-102v-102zM268 140h102v102h-102v-102zM268 524h102v102h-102v-102zM268 652h102v102h-102v-102zM268 780h102v102h-102v-102zM396 140h102v102h-102v-102zM396 396h102v102h-102v-102zM396 652 h102v102h-102v-102zM396 908h102v102h-102v-102zM524 268h102v102h-102v-102zM524 780h102v102h-102v-102zM652 140h102v102h-102v-102z" />
<glyph unicode="'" d="M0 0v1152h896v-1152h-896zM396 780h102v102h-102v-102zM396 908h102v102h-102v-102z" />
<glyph unicode="(" d="M0 0v1152h896v-1152h-896zM396 396h102v102h-102v-102zM396 524h102v102h-102v-102zM396 652h102v102h-102v-102zM524 268h102v102h-102v-102zM524 780h102v102h-102v-102zM652 140h102v102h-102v-102zM652 908h102v102h-102v-102z" />
<glyph unicode=")" d="M0 0v1152h896v-1152h-896zM140 140h102v102h-102v-102zM140 908h102v102h-102v-102zM268 268h102v102h-102v-102zM268 780h102v102h-102v-102zM396 396h102v102h-102v-102zM396 524h102v102h-102v-102zM396 652h102v102h-102v-102z" />
<glyph unicode="*" d="M0 0v1152h896v-1152h-896zM140 780h102v102h-102v-102zM268 652h102v102h-102v-102zM268 780h102v102h-102v-102zM396 780h102v102h-102v-102zM396 908h102v102h-102v-102zM524 652h102v102h-102v-102zM524 780h102v102h-102v-102zM652 780h102v102h-102v-102z" />
<glyph unicode="+" d="M0 0v1152h896v-1152h-896zM140 524h102v102h-102v-102zM268 524h102v102h-102v-102zM396 268h102v102h-102v-102zM396 396h102v102h-102v-102zM396 524h102v102h-102v-102zM396 652h102v102h-102v-102zM396 780h102v102h-102v-102zM524 524h102v102h-102v-102zM652 524 h102v102h-102v-102z" />
<glyph unicode="," d="M0 0v1152h896v-1152h-896zM140 140h102v102h-102v-102zM140 396h102v102h-102v-102zM268 268h102v102h-102v-102zM268 396h102v102h-102v-102z" />
<glyph unicode="-" d="M0 0v1152h896v-1152h-896zM140 524h102v102h-102v-102zM268 524h102v102h-102v-102zM396 524h102v102h-102v-102zM524 524h102v102h-102v-102zM652 524h102v102h-102v-102z" />
<glyph unicode="." d="M0 0v1152h896v-1152h-896zM140 140h102v102h-102v-102zM140 268h102v102h-102v-102zM268 140h102v102h-102v-102zM268 268h102v102h-102v-102z" />
<glyph unicode="/" d="M0 0v1152h896v-1152h-896zM140 268h102v102h-102v-102zM268 396h102v102h-102v-102zM396 524h102v102h-102v-102zM524 652h102v102h-102v-102zM652 780h102v102h-102v-102z" />
<glyph unicode="0" d="M0 0v1152h896v-1152h-896zM140 268h102v102h-102v-102zM140 396h102v102h-102v-102zM140 524h102v102h-102v-102zM140 652h102v102h-102v-102zM140 780h102v102h-102v-102zM268 140h102v102h-102v-102zM268 396h102v102h-102v-102zM268 908h102v102h-102v-102zM396 140 h102v102h-102v-102zM396 524h102v102h-102v-102zM396 908h102v102h-102v-102zM524 140h102v102h-102v-102zM524 652h102v102h-102v-102zM524 908h102v102h-102v-102zM652 268h102v102h-102v-102zM652 396h102v102h-102v-102zM652 524h102v102h-102v-102zM652 652h102v102 h-102v-102zM652 780h102v102h-102v-102z" />
<glyph unicode="1" d="M0 0v1152h896v-1152h-896zM268 140h102v102h-102v-102zM268 780h102v102h-102v-102zM396 140h102v102h-102v-102zM396 268h102v102h-102v-102zM396 396h102v102h-102v-102zM396 524h102v102h-102v-102zM396 652h102v102h-102v-102zM396 780h102v102h-102v-102zM396 908 h102v102h-102v-102zM524 140h102v102h-102v-102z" />
<glyph unicode="2" d="M0 0v1152h896v-1152h-896zM140 140h102v102h-102v-102zM140 268h102v102h-102v-102zM140 780h102v102h-102v-102zM268 140h102v102h-102v-102zM268 396h102v102h-102v-102zM268 908h102v102h-102v-102zM396 140h102v102h-102v-102zM396 524h102v102h-102v-102zM396 908 h102v102h-102v-102zM524 140h102v102h-102v-102zM524 524h102v102h-102v-102zM524 908h102v102h-102v-102zM652 140h102v102h-102v-102zM652 652h102v102h-102v-102zM652 780h102v102h-102v-102z" />
<glyph unicode="3" d="M0 0v1152h896v-1152h-896zM140 268h102v102h-102v-102zM140 780h102v102h-102v-102zM268 140h102v102h-102v-102zM268 908h102v102h-102v-102zM396 140h102v102h-102v-102zM396 524h102v102h-102v-102zM396 908h102v102h-102v-102zM524 140h102v102h-102v-102zM524 524 h102v102h-102v-102zM524 908h102v102h-102v-102zM652 268h102v102h-102v-102zM652 396h102v102h-102v-102zM652 652h102v102h-102v-102zM652 780h102v102h-102v-102z" />
<glyph unicode="4" d="M0 0v1152h896v-1152h-896zM140 524h102v102h-102v-102zM140 652h102v102h-102v-102zM268 524h102v102h-102v-102zM268 780h102v102h-102v-102zM396 524h102v102h-102v-102zM396 908h102v102h-102v-102zM524 140h102v102h-102v-102zM524 268h102v102h-102v-102zM524 396 h102v102h-102v-102zM524 524h102v102h-102v-102zM524 652h102v102h-102v-102zM524 780h102v102h-102v-102zM524 908h102v102h-102v-102zM652 524h102v102h-102v-102z" />
<glyph unicode="5" d="M0 0v1152h896v-1152h-896zM140 140h102v102h-102v-102zM140 524h102v102h-102v-102zM140 652h102v102h-102v-102zM140 780h102v102h-102v-102zM140 908h102v102h-102v-102zM268 140h102v102h-102v-102zM268 524h102v102h-102v-102zM268 908h102v102h-102v-102zM396 140 h102v102h-102v-102zM396 524h102v102h-102v-102zM396 908h102v102h-102v-102zM524 140h102v102h-102v-102zM524 524h102v102h-102v-102zM524 908h102v102h-102v-102zM652 268h102v102h-102v-102zM652 396h102v102h-102v-102zM652 908h102v102h-102v-102z" />
<glyph unicode="6" d="M0 0v1152h896v-1152h-896zM140 268h102v102h-102v-102zM140 396h102v102h-102v-102zM140 524h102v102h-102v-102zM140 652h102v102h-102v-102zM140 780h102v102h-102v-102zM268 140h102v102h-102v-102zM268 524h102v102h-102v-102zM268 908h102v102h-102v-102zM396 140 h102v102h-102v-102zM396 524h102v102h-102v-102zM396 908h102v102h-102v-102zM524 140h102v102h-102v-102zM524 524h102v102h-102v-102zM524 908h102v102h-102v-102zM652 268h102v102h-102v-102zM652 396h102v102h-102v-102zM652 780h102v102h-102v-102z" />
<glyph unicode="7" d="M0 0v1152h896v-1152h-896zM140 780h102v102h-102v-102zM140 908h102v102h-102v-102zM268 908h102v102h-102v-102zM396 140h102v102h-102v-102zM396 268h102v102h-102v-102zM396 396h102v102h-102v-102zM396 908h102v102h-102v-102zM524 524h102v102h-102v-102zM524 908 h102v102h-102v-102zM652 652h102v102h-102v-102zM652 780h102v102h-102v-102zM652 908h102v102h-102v-102z" />
<glyph unicode="8" d="M0 0v1152h896v-1152h-896zM140 268h102v102h-102v-102zM140 396h102v102h-102v-102zM140 652h102v102h-102v-102zM140 780h102v102h-102v-102zM268 140h102v102h-102v-102zM268 524h102v102h-102v-102zM268 908h102v102h-102v-102zM396 140h102v102h-102v-102zM396 524 h102v102h-102v-102zM396 908h102v102h-102v-102zM524 140h102v102h-102v-102zM524 524h102v102h-102v-102zM524 908h102v102h-102v-102zM652 268h102v102h-102v-102zM652 396h102v102h-102v-102zM652 652h102v102h-102v-102zM652 780h102v102h-102v-102z" />
<glyph unicode="9" d="M0 0v1152h896v-1152h-896zM140 268h102v102h-102v-102zM140 652h102v102h-102v-102zM140 780h102v102h-102v-102zM268 140h102v102h-102v-102zM268 524h102v102h-102v-102zM268 908h102v102h-102v-102zM396 140h102v102h-102v-102zM396 524h102v102h-102v-102zM396 908 h102v102h-102v-102zM524 140h102v102h-102v-102zM524 524h102v102h-102v-102zM524 908h102v102h-102v-102zM652 268h102v102h-102v-102zM652 396h102v102h-102v-102zM652 524h102v102h-102v-102zM652 652h102v102h-102v-102zM652 780h102v102h-102v-102z" />
<glyph unicode=":" d="M0 0v1152h896v-1152h-896zM268 140h102v102h-102v-102zM268 268h102v102h-102v-102zM268 652h102v102h-102v-102zM268 780h102v102h-102v-102zM396 140h102v102h-102v-102zM396 268h102v102h-102v-102zM396 652h102v102h-102v-102zM396 780h102v102h-102v-102z" />
<glyph unicode=";" d="M0 0v1152h896v-1152h-896zM268 140h102v102h-102v-102zM268 396h102v102h-102v-102zM268 652h102v102h-102v-102zM268 780h102v102h-102v-102zM396 268h102v102h-102v-102zM396 396h102v102h-102v-102zM396 652h102v102h-102v-102zM396 780h102v102h-102v-102z" />
<glyph unicode="&#x3c;" d="M0 0v1152h896v-1152h-896zM268 524h102v102h-102v-102zM396 396h102v102h-102v-102zM396 652h102v102h-102v-102zM524 268h102v102h-102v-102zM524 780h102v102h-102v-102zM652 140h102v102h-102v-102zM652 908h102v102h-102v-102z" />
<glyph unicode="=" d="M0 0v1152h896v-1152h-896zM140 268h102v102h-102v-102zM140 652h102v102h-102v-102zM268 268h102v102h-102v-102zM268 652h102v102h-102v-102zM396 268h102v102h-102v-102zM396 652h102v102h-102v-102zM524 268h102v102h-102v-102zM524 652h102v102h-102v-102zM652 268 h102v102h-102v-102zM652 652h102v102h-102v-102z" />
<glyph unicode="&#x3e;" d="M0 0v1152h896v-1152h-896zM140 140h102v102h-102v-102zM140 908h102v102h-102v-102zM268 268h102v102h-102v-102zM268 780h102v102h-102v-102zM396 396h102v102h-102v-102zM396 652h102v102h-102v-102zM524 524h102v102h-102v-102z" />
<glyph unicode="?" d="M0 0v1152h896v-1152h-896zM140 780h102v102h-102v-102zM268 908h102v102h-102v-102zM396 140h102v102h-102v-102zM396 396h102v102h-102v-102zM396 524h102v102h-102v-102zM396 908h102v102h-102v-102zM524 524h102v102h-102v-102zM524 908h102v102h-102v-102zM652 652 h102v102h-102v-102zM652 780h102v102h-102v-102z" />
<glyph unicode="@" d="M0 0v1152h896v-1152h-896zM140 268h102v102h-102v-102zM140 396h102v102h-102v-102zM140 524h102v102h-102v-102zM140 652h102v102h-102v-102zM140 780h102v102h-102v-102zM268 140h102v102h-102v-102zM268 908h102v102h-102v-102zM396 140h102v102h-102v-102zM396 396 h102v102h-102v-102zM396 524h102v102h-102v-102zM396 652h102v102h-102v-102zM396 908h102v102h-102v-102zM524 140h102v102h-102v-102zM524 396h102v102h-102v-102zM524 652h102v102h-102v-102zM524 908h102v102h-102v-102zM652 140h102v102h-102v-102zM652 396h102v102 h-102v-102zM652 524h102v102h-102v-102zM652 652h102v102h-102v-102zM652 780h102v102h-102v-102z" />
<glyph unicode="A" d="M0 0v1152h896v-1152h-896zM140 140h102v102h-102v-102zM140 268h102v102h-102v-102zM140 396h102v102h-102v-102zM140 524h102v102h-102v-102zM140 652h102v102h-102v-102zM268 524h102v102h-102v-102zM268 780h102v102h-102v-102zM396 524h102v102h-102v-102zM396 908 h102v102h-102v-102zM524 524h102v102h-102v-102zM524 780h102v102h-102v-102zM652 140h102v102h-102v-102zM652 268h102v102h-102v-102zM652 396h102v102h-102v-102zM652 524h102v102h-102v-102zM652 652h102v102h-102v-102z" />
<glyph unicode="B" d="M0 0v1152h896v-1152h-896zM140 140h102v102h-102v-102zM140 268h102v102h-102v-102zM140 396h102v102h-102v-102zM140 524h102v102h-102v-102zM140 652h102v102h-102v-102zM140 780h102v102h-102v-102zM140 908h102v102h-102v-102zM268 140h102v102h-102v-102zM268 524 h102v102h-102v-102zM268 908h102v102h-102v-102zM396 140h102v102h-102v-102zM396 524h102v102h-102v-102zM396 908h102v102h-102v-102zM524 140h102v102h-102v-102zM524 524h102v102h-102v-102zM524 908h102v102h-102v-102zM652 268h102v102h-102v-102zM652 396h102v102 h-102v-102zM652 652h102v102h-102v-102zM652 780h102v102h-102v-102z" />
<glyph unicode="C" d="M0 0v1152h896v-1152h-896zM140 268h102v102h-102v-102zM140 396h102v102h-102v-102zM140 524h102v102h-102v-102zM140 652h102v102h-102v-102zM140 780h102v102h-102v-102zM268 140h102v102h-102v-102zM268 908h102v102h-102v-102zM396 140h102v102h-102v-102zM396 908 h102v102h-102v-102zM524 140h102v102h-102v-102zM524 908h102v102h-102v-102zM652 268h102v102h-102v-102zM652 780h102v102h-102v-102z" />
<glyph unicode="D" d="M0 0v1152h896v-1152h-896zM140 140h102v102h-102v-102zM140 268h102v102h-102v-102zM140 396h102v102h-102v-102zM140 524h102v102h-102v-102zM140 652h102v102h-102v-102zM140 780h102v102h-102v-102zM140 908h102v102h-102v-102zM268 140h102v102h-102v-102zM268 908 h102v102h-102v-102zM396 140h102v102h-102v-102zM396 908h102v102h-102v-102zM524 268h102v102h-102v-102zM524 780h102v102h-102v-102zM652 396h102v102h-102v-102zM652 524h102v102h-102v-102zM652 652h102v102h-102v-102z" />
<glyph unicode="E" d="M0 0v1152h896v-1152h-896zM140 140h102v102h-102v-102zM140 268h102v102h-102v-102zM140 396h102v102h-102v-102zM140 524h102v102h-102v-102zM140 652h102v102h-102v-102zM140 780h102v102h-102v-102zM140 908h102v102h-102v-102zM268 140h102v102h-102v-102zM268 524 h102v102h-102v-102zM268 908h102v102h-102v-102zM396 140h102v102h-102v-102zM396 524h102v102h-102v-102zM396 908h102v102h-102v-102zM524 140h102v102h-102v-102zM524 908h102v102h-102v-102zM652 140h102v102h-102v-102zM652 908h102v102h-102v-102z" />
<glyph unicode="F" d="M0 0v1152h896v-1152h-896zM140 140h102v102h-102v-102zM140 268h102v102h-102v-102zM140 396h102v102h-102v-102zM140 524h102v102h-102v-102zM140 652h102v102h-102v-102zM140 780h102v102h-102v-102zM140 908h102v102h-102v-102zM268 524h102v102h-102v-102zM268 908 h102v102h-102v-102zM396 524h102v102h-102v-102zM396 908h102v102h-102v-102zM524 908h102v102h-102v-102zM652 908h102v102h-102v-102z" />
<glyph unicode="G" d="M0 0v1152h896v-1152h-896zM140 268h102v102h-102v-102zM140 396h102v102h-102v-102zM140 524h102v102h-102v-102zM140 652h102v102h-102v-102zM140 780h102v102h-102v-102zM268 140h102v102h-102v-102zM268 908h102v102h-102v-102zM396 140h102v102h-102v-102zM396 524 h102v102h-102v-102zM396 908h102v102h-102v-102zM524 140h102v102h-102v-102zM524 524h102v102h-102v-102zM524 908h102v102h-102v-102zM652 140h102v102h-102v-102zM652 268h102v102h-102v-102zM652 396h102v102h-102v-102zM652 524h102v102h-102v-102zM652 780h102v102 h-102v-102z" />
<glyph unicode="H" d="M0 0v1152h896v-1152h-896zM140 140h102v102h-102v-102zM140 268h102v102h-102v-102zM140 396h102v102h-102v-102zM140 524h102v102h-102v-102zM140 652h102v102h-102v-102zM140 780h102v102h-102v-102zM140 908h102v102h-102v-102zM268 524h102v102h-102v-102zM396 524 h102v102h-102v-102zM524 524h102v102h-102v-102zM652 140h102v102h-102v-102zM652 268h102v102h-102v-102zM652 396h102v102h-102v-102zM652 524h102v102h-102v-102zM652 652h102v102h-102v-102zM652 780h102v102h-102v-102zM652 908h102v102h-102v-102z" />
<glyph unicode="I" d="M0 0v1152h896v-1152h-896zM268 140h102v102h-102v-102zM268 908h102v102h-102v-102zM396 140h102v102h-102v-102zM396 268h102v102h-102v-102zM396 396h102v102h-102v-102zM396 524h102v102h-102v-102zM396 652h102v102h-102v-102zM396 780h102v102h-102v-102zM396 908 h102v102h-102v-102zM524 140h102v102h-102v-102zM524 908h102v102h-102v-102z" />
<glyph unicode="J" d="M0 0v1152h896v-1152h-896zM140 268h102v102h-102v-102zM140 396h102v102h-102v-102zM268 140h102v102h-102v-102zM396 140h102v102h-102v-102zM524 140h102v102h-102v-102zM652 268h102v102h-102v-102zM652 396h102v102h-102v-102zM652 524h102v102h-102v-102zM652 652 h102v102h-102v-102zM652 780h102v102h-102v-102zM652 908h102v102h-102v-102z" />
<glyph unicode="K" d="M0 0v1152h896v-1152h-896zM140 140h102v102h-102v-102zM140 268h102v102h-102v-102zM140 396h102v102h-102v-102zM140 524h102v102h-102v-102zM140 652h102v102h-102v-102zM140 780h102v102h-102v-102zM140 908h102v102h-102v-102zM268 524h102v102h-102v-102zM396 524 h102v102h-102v-102zM396 652h102v102h-102v-102zM524 396h102v102h-102v-102zM524 780h102v102h-102v-102zM652 140h102v102h-102v-102zM652 268h102v102h-102v-102zM652 908h102v102h-102v-102z" />
<glyph unicode="L" d="M0 0v1152h896v-1152h-896zM140 140h102v102h-102v-102zM140 268h102v102h-102v-102zM140 396h102v102h-102v-102zM140 524h102v102h-102v-102zM140 652h102v102h-102v-102zM140 780h102v102h-102v-102zM140 908h102v102h-102v-102zM268 140h102v102h-102v-102zM396 140 h102v102h-102v-102zM524 140h102v102h-102v-102zM652 140h102v102h-102v-102z" />
<glyph unicode="M" d="M0 0v1152h896v-1152h-896zM140 140h102v102h-102v-102zM140 268h102v102h-102v-102zM140 396h102v102h-102v-102zM140 524h102v102h-102v-102zM140 652h102v102h-102v-102zM140 780h102v102h-102v-102zM140 908h102v102h-102v-102zM268 780h102v102h-102v-102zM396 396 h102v102h-102v-102zM396 524h102v102h-102v-102zM396 652h102v102h-102v-102zM524 780h102v102h-102v-102zM652 140h102v102h-102v-102zM652 268h102v102h-102v-102zM652 396h102v102h-102v-102zM652 524h102v102h-102v-102zM652 652h102v102h-102v-102zM652 780h102v102 h-102v-102zM652 908h102v102h-102v-102z" />
<glyph unicode="N" d="M0 0v1152h896v-1152h-896zM140 140h102v102h-102v-102zM140 268h102v102h-102v-102zM140 396h102v102h-102v-102zM140 524h102v102h-102v-102zM140 652h102v102h-102v-102zM140 780h102v102h-102v-102zM140 908h102v102h-102v-102zM268 780h102v102h-102v-102zM396 652 h102v102h-102v-102zM524 524h102v102h-102v-102zM652 140h102v102h-102v-102zM652 268h102v102h-102v-102zM652 396h102v102h-102v-102zM652 524h102v102h-102v-102zM652 652h102v102h-102v-102zM652 780h102v102h-102v-102zM652 908h102v102h-102v-102z" />
<glyph unicode="O" d="M0 0v1152h896v-1152h-896zM140 268h102v102h-102v-102zM140 396h102v102h-102v-102zM140 524h102v102h-102v-102zM140 652h102v102h-102v-102zM140 780h102v102h-102v-102zM268 140h102v102h-102v-102zM268 908h102v102h-102v-102zM396 140h102v102h-102v-102zM396 908 h102v102h-102v-102zM524 140h102v102h-102v-102zM524 908h102v102h-102v-102zM652 268h102v102h-102v-102zM652 396h102v102h-102v-102zM652 524h102v102h-102v-102zM652 652h102v102h-102v-102zM652 780h102v102h-102v-102z" />
<glyph unicode="P" d="M0 0v1152h896v-1152h-896zM140 140h102v102h-102v-102zM140 268h102v102h-102v-102zM140 396h102v102h-102v-102zM140 524h102v102h-102v-102zM140 652h102v102h-102v-102zM140 780h102v102h-102v-102zM140 908h102v102h-102v-102zM268 524h102v102h-102v-102zM268 908 h102v102h-102v-102zM396 524h102v102h-102v-102zM396 908h102v102h-102v-102zM524 524h102v102h-102v-102zM524 908h102v102h-102v-102zM652 652h102v102h-102v-102zM652 780h102v102h-102v-102z" />
<glyph unicode="Q" d="M0 0v1152h896v-1152h-896zM140 268h102v102h-102v-102zM140 396h102v102h-102v-102zM140 524h102v102h-102v-102zM140 652h102v102h-102v-102zM140 780h102v102h-102v-102zM268 140h102v102h-102v-102zM268 908h102v102h-102v-102zM396 140h102v102h-102v-102zM396 396 h102v102h-102v-102zM396 908h102v102h-102v-102zM524 140h102v102h-102v-102zM524 268h102v102h-102v-102zM524 908h102v102h-102v-102zM652 140h102v102h-102v-102zM652 268h102v102h-102v-102zM652 396h102v102h-102v-102zM652 524h102v102h-102v-102zM652 652h102v102 h-102v-102zM652 780h102v102h-102v-102z" />
<glyph unicode="R" d="M0 0v1152h896v-1152h-896zM140 140h102v102h-102v-102zM140 268h102v102h-102v-102zM140 396h102v102h-102v-102zM140 524h102v102h-102v-102zM140 652h102v102h-102v-102zM140 780h102v102h-102v-102zM140 908h102v102h-102v-102zM268 524h102v102h-102v-102zM268 908 h102v102h-102v-102zM396 524h102v102h-102v-102zM396 908h102v102h-102v-102zM524 524h102v102h-102v-102zM524 908h102v102h-102v-102zM652 140h102v102h-102v-102zM652 268h102v102h-102v-102zM652 396h102v102h-102v-102zM652 652h102v102h-102v-102zM652 780h102v102 h-102v-102z" />
<glyph unicode="S" d="M0 0v1152h896v-1152h-896zM140 268h102v102h-102v-102zM140 652h102v102h-102v-102zM140 780h102v102h-102v-102zM268 140h102v102h-102v-102zM268 524h102v102h-102v-102zM268 908h102v102h-102v-102zM396 140h102v102h-102v-102zM396 524h102v102h-102v-102zM396 908 h102v102h-102v-102zM524 140h102v102h-102v-102zM524 524h102v102h-102v-102zM524 908h102v102h-102v-102zM652 268h102v102h-102v-102zM652 396h102v102h-102v-102zM652 780h102v102h-102v-102z" />
<glyph unicode="T" d="M0 0v1152h896v-1152h-896zM140 908h102v102h-102v-102zM268 908h102v102h-102v-102zM396 140h102v102h-102v-102zM396 268h102v102h-102v-102zM396 396h102v102h-102v-102zM396 524h102v102h-102v-102zM396 652h102v102h-102v-102zM396 780h102v102h-102v-102zM396 908 h102v102h-102v-102zM524 908h102v102h-102v-102zM652 908h102v102h-102v-102z" />
<glyph unicode="U" d="M0 0v1152h896v-1152h-896zM140 268h102v102h-102v-102zM140 396h102v102h-102v-102zM140 524h102v102h-102v-102zM140 652h102v102h-102v-102zM140 780h102v102h-102v-102zM140 908h102v102h-102v-102zM268 140h102v102h-102v-102zM396 140h102v102h-102v-102zM524 140 h102v102h-102v-102zM652 268h102v102h-102v-102zM652 396h102v102h-102v-102zM652 524h102v102h-102v-102zM652 652h102v102h-102v-102zM652 780h102v102h-102v-102zM652 908h102v102h-102v-102z" />
<glyph unicode="V" d="M0 0v1152h896v-1152h-896zM140 396h102v102h-102v-102zM140 524h102v102h-102v-102zM140 652h102v102h-102v-102zM140 780h102v102h-102v-102zM140 908h102v102h-102v-102zM268 268h102v102h-102v-102zM396 140h102v102h-102v-102zM524 268h102v102h-102v-102zM652 396 h102v102h-102v-102zM652 524h102v102h-102v-102zM652 652h102v102h-102v-102zM652 780h102v102h-102v-102zM652 908h102v102h-102v-102z" />
<glyph unicode="W" d="M0 0v1152h896v-1152h-896zM140 140h102v102h-102v-102zM140 268h102v102h-102v-102zM140 396h102v102h-102v-102zM140 524h102v102h-102v-102zM140 652h102v102h-102v-102zM140 780h102v102h-102v-102zM140 908h102v102h-102v-102zM268 140h102v102h-102v-102zM396 268 h102v102h-102v-102zM396 396h102v102h-102v-102zM396 524h102v102h-102v-102zM524 140h102v102h-102v-102zM652 140h102v102h-102v-102zM652 268h102v102h-102v-102zM652 396h102v102h-102v-102zM652 524h102v102h-102v-102zM652 652h102v102h-102v-102zM652 780h102v102 h-102v-102zM652 908h102v102h-102v-102z" />
<glyph unicode="X" d="M0 0v1152h896v-1152h-896zM140 140h102v102h-102v-102zM140 268h102v102h-102v-102zM140 780h102v102h-102v-102zM140 908h102v102h-102v-102zM268 396h102v102h-102v-102zM268 652h102v102h-102v-102zM396 524h102v102h-102v-102zM524 396h102v102h-102v-102zM524 652 h102v102h-102v-102zM652 140h102v102h-102v-102zM652 268h102v102h-102v-102zM652 780h102v102h-102v-102zM652 908h102v102h-102v-102z" />
<glyph unicode="Y" d="M0 0v1152h896v-1152h-896zM140 780h102v102h-102v-102zM140 908h102v102h-102v-102zM268 652h102v102h-102v-102zM396 140h102v102h-102v-102zM396 268h102v102h-102v-102zM396 396h102v102h-102v-102zM396 524h102v102h-102v-102zM524 652h102v102h-102v-102zM652 780 h102v102h-102v-102zM652 908h102v102h-102v-102z" />
<glyph unicode="Z" d="M0 0v1152h896v-1152h-896zM140 140h102v102h-102v-102zM140 268h102v102h-102v-102zM140 908h102v102h-102v-102zM268 140h102v102h-102v-102zM268 396h102v102h-102v-102zM268 908h102v102h-102v-102zM396 140h102v102h-102v-102zM396 524h102v102h-102v-102zM396 908 h102v102h-102v-102zM524 140h102v102h-102v-102zM524 652h102v102h-102v-102zM524 908h102v102h-102v-102zM652 140h102v102h-102v-102zM652 780h102v102h-102v-102zM652 908h102v102h-102v-102z" />
<glyph unicode="[" d="M0 0v1152h896v-1152h-896zM396 140h102v102h-102v-102zM396 268h102v102h-102v-102zM396 396h102v102h-102v-102zM396 524h102v102h-102v-102zM396 652h102v102h-102v-102zM396 780h102v102h-102v-102zM396 908h102v102h-102v-102zM524 140h102v102h-102v-102zM524 908 h102v102h-102v-102zM652 140h102v102h-102v-102zM652 908h102v102h-102v-102z" />
<glyph unicode="\" d="M0 0v1152h896v-1152h-896zM140 780h102v102h-102v-102zM268 652h102v102h-102v-102zM396 524h102v102h-102v-102zM524 396h102v102h-102v-102zM652 268h102v102h-102v-102z" />
<glyph unicode="]" d="M0 0v1152h896v-1152h-896zM140 140h102v102h-102v-102zM140 908h102v102h-102v-102zM268 140h102v102h-102v-102zM268 908h102v102h-102v-102zM396 140h102v102h-102v-102zM396 268h102v102h-102v-102zM396 396h102v102h-102v-102zM396 524h102v102h-102v-102zM396 652 h102v102h-102v-102zM396 780h102v102h-102v-102zM396 908h102v102h-102v-102z" />
<glyph unicode="^" d="M0 0v1152h896v-1152h-896zM140 652h102v102h-102v-102zM268 780h102v102h-102v-102zM396 908h102v102h-102v-102zM524 780h102v102h-102v-102zM652 652h102v102h-102v-102z" />
<glyph unicode="_" d="M0 0v1152h896v-1152h-896zM140 140h102v102h-102v-102zM268 140h102v102h-102v-102zM396 140h102v102h-102v-102zM524 140h102v102h-102v-102zM652 140h102v102h-102v-102z" />
<glyph unicode="`" d="M0 0v1152h896v-1152h-896zM268 908h102v102h-102v-102zM396 780h102v102h-102v-102z" />
<glyph unicode="a" d="M0 0v1152h896v-1152h-896zM140 268h102v102h-102v-102zM268 140h102v102h-102v-102zM268 396h102v102h-102v-102zM268 652h102v102h-102v-102zM396 140h102v102h-102v-102zM396 396h102v102h-102v-102zM396 652h102v102h-102v-102zM524 140h102v102h-102v-102zM524 396 h102v102h-102v-102zM524 652h102v102h-102v-102zM652 140h102v102h-102v-102zM652 268h102v102h-102v-102zM652 396h102v102h-102v-102zM652 524h102v102h-102v-102z" />
<glyph unicode="b" d="M0 0v1152h896v-1152h-896zM140 140h102v102h-102v-102zM140 268h102v102h-102v-102zM140 396h102v102h-102v-102zM140 524h102v102h-102v-102zM140 652h102v102h-102v-102zM140 780h102v102h-102v-102zM140 908h102v102h-102v-102zM268 140h102v102h-102v-102zM268 652 h102v102h-102v-102zM396 140h102v102h-102v-102zM396 652h102v102h-102v-102zM524 140h102v102h-102v-102zM524 652h102v102h-102v-102zM652 268h102v102h-102v-102zM652 396h102v102h-102v-102zM652 524h102v102h-102v-102z" />
<glyph unicode="c" d="M0 0v1152h896v-1152h-896zM140 268h102v102h-102v-102zM140 396h102v102h-102v-102zM140 524h102v102h-102v-102zM268 140h102v102h-102v-102zM268 652h102v102h-102v-102zM396 140h102v102h-102v-102zM396 652h102v102h-102v-102zM524 140h102v102h-102v-102zM524 652 h102v102h-102v-102zM652 524h102v102h-102v-102z" />
<glyph unicode="d" d="M0 0v1152h896v-1152h-896zM140 268h102v102h-102v-102zM140 396h102v102h-102v-102zM140 524h102v102h-102v-102zM268 140h102v102h-102v-102zM268 652h102v102h-102v-102zM396 140h102v102h-102v-102zM396 652h102v102h-102v-102zM524 140h102v102h-102v-102zM524 652 h102v102h-102v-102zM652 140h102v102h-102v-102zM652 268h102v102h-102v-102zM652 396h102v102h-102v-102zM652 524h102v102h-102v-102zM652 652h102v102h-102v-102zM652 780h102v102h-102v-102zM652 908h102v102h-102v-102z" />
<glyph unicode="e" d="M0 0v1152h896v-1152h-896zM140 268h102v102h-102v-102zM140 396h102v102h-102v-102zM140 524h102v102h-102v-102zM268 140h102v102h-102v-102zM268 396h102v102h-102v-102zM268 652h102v102h-102v-102zM396 140h102v102h-102v-102zM396 396h102v102h-102v-102zM396 652 h102v102h-102v-102zM524 140h102v102h-102v-102zM524 396h102v102h-102v-102zM524 652h102v102h-102v-102zM652 396h102v102h-102v-102zM652 524h102v102h-102v-102z" />
<glyph unicode="f" d="M0 0v1152h896v-1152h-896zM140 524h102v102h-102v-102zM268 140h102v102h-102v-102zM268 268h102v102h-102v-102zM268 396h102v102h-102v-102zM268 524h102v102h-102v-102zM268 652h102v102h-102v-102zM268 780h102v102h-102v-102zM396 524h102v102h-102v-102zM396 908 h102v102h-102v-102zM524 524h102v102h-102v-102zM524 908h102v102h-102v-102zM652 780h102v102h-102v-102z" />
<glyph unicode="g" d="M0 0v1152h896v-1152h-896zM140 140h102v102h-102v-102zM140 524h102v102h-102v-102zM268 140h102v102h-102v-102zM268 396h102v102h-102v-102zM268 652h102v102h-102v-102zM396 140h102v102h-102v-102zM396 396h102v102h-102v-102zM396 652h102v102h-102v-102zM524 140 h102v102h-102v-102zM524 396h102v102h-102v-102zM524 652h102v102h-102v-102zM652 268h102v102h-102v-102zM652 396h102v102h-102v-102zM652 524h102v102h-102v-102z" />
<glyph unicode="h" d="M0 0v1152h896v-1152h-896zM140 140h102v102h-102v-102zM140 268h102v102h-102v-102zM140 396h102v102h-102v-102zM140 524h102v102h-102v-102zM140 652h102v102h-102v-102zM140 780h102v102h-102v-102zM140 908h102v102h-102v-102zM268 524h102v102h-102v-102zM396 524 h102v102h-102v-102zM524 524h102v102h-102v-102zM652 140h102v102h-102v-102zM652 268h102v102h-102v-102zM652 396h102v102h-102v-102z" />
<glyph unicode="i" d="M0 0v1152h896v-1152h-896zM268 140h102v102h-102v-102zM268 524h102v102h-102v-102zM396 140h102v102h-102v-102zM396 268h102v102h-102v-102zM396 396h102v102h-102v-102zM396 524h102v102h-102v-102zM396 780h102v102h-102v-102zM524 140h102v102h-102v-102z" />
<glyph unicode="j" d="M0 0v1152h896v-1152h-896zM140 268h102v102h-102v-102zM268 140h102v102h-102v-102zM396 140h102v102h-102v-102zM524 140h102v102h-102v-102zM524 652h102v102h-102v-102zM652 268h102v102h-102v-102zM652 396h102v102h-102v-102zM652 524h102v102h-102v-102zM652 652 h102v102h-102v-102zM652 908h102v102h-102v-102z" />
<glyph unicode="k" d="M0 0v1152h896v-1152h-896zM140 140h102v102h-102v-102zM140 268h102v102h-102v-102zM140 396h102v102h-102v-102zM140 524h102v102h-102v-102zM140 652h102v102h-102v-102zM140 780h102v102h-102v-102zM140 908h102v102h-102v-102zM268 396h102v102h-102v-102zM396 268 h102v102h-102v-102zM396 524h102v102h-102v-102zM524 140h102v102h-102v-102zM524 652h102v102h-102v-102z" />
<glyph unicode="l" d="M0 0v1152h896v-1152h-896zM268 268h102v102h-102v-102zM268 396h102v102h-102v-102zM268 524h102v102h-102v-102zM268 652h102v102h-102v-102zM268 780h102v102h-102v-102zM268 908h102v102h-102v-102zM396 140h102v102h-102v-102zM524 140h102v102h-102v-102z" />
<glyph unicode="m" d="M0 0v1152h896v-1152h-896zM140 140h102v102h-102v-102zM140 268h102v102h-102v-102zM140 396h102v102h-102v-102zM140 524h102v102h-102v-102zM140 652h102v102h-102v-102zM268 652h102v102h-102v-102zM396 268h102v102h-102v-102zM396 396h102v102h-102v-102zM396 524 h102v102h-102v-102zM524 652h102v102h-102v-102zM652 140h102v102h-102v-102zM652 268h102v102h-102v-102zM652 396h102v102h-102v-102zM652 524h102v102h-102v-102z" />
<glyph unicode="n" d="M0 0v1152h896v-1152h-896zM140 140h102v102h-102v-102zM140 268h102v102h-102v-102zM140 396h102v102h-102v-102zM140 524h102v102h-102v-102zM140 652h102v102h-102v-102zM268 652h102v102h-102v-102zM396 652h102v102h-102v-102zM524 652h102v102h-102v-102zM652 140 h102v102h-102v-102zM652 268h102v102h-102v-102zM652 396h102v102h-102v-102zM652 524h102v102h-102v-102z" />
<glyph unicode="o" d="M0 0v1152h896v-1152h-896zM140 268h102v102h-102v-102zM140 396h102v102h-102v-102zM140 524h102v102h-102v-102zM268 140h102v102h-102v-102zM268 652h102v102h-102v-102zM396 140h102v102h-102v-102zM396 652h102v102h-102v-102zM524 140h102v102h-102v-102zM524 652 h102v102h-102v-102zM652 268h102v102h-102v-102zM652 396h102v102h-102v-102zM652 524h102v102h-102v-102z" />
<glyph unicode="p" d="M0 0v1152h896v-1152h-896zM140 140h102v102h-102v-102zM140 268h102v102h-102v-102zM140 396h102v102h-102v-102zM140 524h102v102h-102v-102zM140 652h102v102h-102v-102zM268 396h102v102h-102v-102zM268 652h102v102h-102v-102zM396 396h102v102h-102v-102zM396 652 h102v102h-102v-102zM524 396h102v102h-102v-102zM524 652h102v102h-102v-102zM652 524h102v102h-102v-102z" />
<glyph unicode="q" d="M0 0v1152h896v-1152h-896zM140 524h102v102h-102v-102zM268 396h102v102h-102v-102zM268 652h102v102h-102v-102zM396 396h102v102h-102v-102zM396 652h102v102h-102v-102zM524 140h102v102h-102v-102zM524 268h102v102h-102v-102zM524 396h102v102h-102v-102zM524 524 h102v102h-102v-102zM524 652h102v102h-102v-102zM652 140h102v102h-102v-102z" />
<glyph unicode="r" d="M0 0v1152h896v-1152h-896zM140 140h102v102h-102v-102zM140 268h102v102h-102v-102zM140 396h102v102h-102v-102zM140 524h102v102h-102v-102zM140 652h102v102h-102v-102zM268 652h102v102h-102v-102zM396 652h102v102h-102v-102zM524 652h102v102h-102v-102zM652 524 h102v102h-102v-102z" />
<glyph unicode="s" d="M0 0v1152h896v-1152h-896zM140 140h102v102h-102v-102zM140 524h102v102h-102v-102zM268 140h102v102h-102v-102zM268 396h102v102h-102v-102zM268 652h102v102h-102v-102zM396 140h102v102h-102v-102zM396 396h102v102h-102v-102zM396 652h102v102h-102v-102zM524 140 h102v102h-102v-102zM524 396h102v102h-102v-102zM524 652h102v102h-102v-102zM652 268h102v102h-102v-102zM652 652h102v102h-102v-102z" />
<glyph unicode="t" d="M0 0v1152h896v-1152h-896zM140 652h102v102h-102v-102zM268 652h102v102h-102v-102zM396 140h102v102h-102v-102zM396 268h102v102h-102v-102zM396 396h102v102h-102v-102zM396 524h102v102h-102v-102zM396 652h102v102h-102v-102zM396 780h102v102h-102v-102zM396 908 h102v102h-102v-102zM524 140h102v102h-102v-102zM524 652h102v102h-102v-102zM652 140h102v102h-102v-102zM652 652h102v102h-102v-102z" />
<glyph unicode="u" d="M0 0v1152h896v-1152h-896zM140 268h102v102h-102v-102zM140 396h102v102h-102v-102zM140 524h102v102h-102v-102zM140 652h102v102h-102v-102zM268 140h102v102h-102v-102zM396 140h102v102h-102v-102zM524 140h102v102h-102v-102zM652 140h102v102h-102v-102zM652 268 h102v102h-102v-102zM652 396h102v102h-102v-102zM652 524h102v102h-102v-102zM652 652h102v102h-102v-102z" />
<glyph unicode="v" d="M0 0v1152h896v-1152h-896zM140 396h102v102h-102v-102zM140 524h102v102h-102v-102zM140 652h102v102h-102v-102zM268 268h102v102h-102v-102zM396 140h102v102h-102v-102zM524 268h102v102h-102v-102zM652 396h102v102h-102v-102zM652 524h102v102h-102v-102zM652 652 h102v102h-102v-102z" />
<glyph unicode="w" d="M0 0v1152h896v-1152h-896zM140 140h102v102h-102v-102zM140 268h102v102h-102v-102zM140 396h102v102h-102v-102zM140 524h102v102h-102v-102zM140 652h102v102h-102v-102zM268 140h102v102h-102v-102zM396 268h102v102h-102v-102zM396 396h102v102h-102v-102zM396 524 h102v102h-102v-102zM524 140h102v102h-102v-102zM652 140h102v102h-102v-102zM652 268h102v102h-102v-102zM652 396h102v102h-102v-102zM652 524h102v102h-102v-102zM652 652h102v102h-102v-102z" />
<glyph unicode="x" d="M0 0v1152h896v-1152h-896zM140 140h102v102h-102v-102zM140 652h102v102h-102v-102zM268 268h102v102h-102v-102zM268 524h102v102h-102v-102zM396 396h102v102h-102v-102zM524 268h102v102h-102v-102zM524 524h102v102h-102v-102zM652 140h102v102h-102v-102zM652 652 h102v102h-102v-102z" />
<glyph unicode="y" d="M0 0v1152h896v-1152h-896zM140 524h102v102h-102v-102zM140 652h102v102h-102v-102zM268 140h102v102h-102v-102zM268 396h102v102h-102v-102zM396 140h102v102h-102v-102zM396 396h102v102h-102v-102zM524 140h102v102h-102v-102zM524 396h102v102h-102v-102zM652 268 h102v102h-102v-102zM652 396h102v102h-102v-102zM652 524h102v102h-102v-102zM652 652h102v102h-102v-102z" />
<glyph unicode="z" d="M0 0v1152h896v-1152h-896zM140 140h102v102h-102v-102zM140 652h102v102h-102v-102zM268 140h102v102h-102v-102zM268 268h102v102h-102v-102zM268 652h102v102h-102v-102zM396 140h102v102h-102v-102zM396 396h102v102h-102v-102zM396 652h102v102h-102v-102zM524 140 h102v102h-102v-102zM524 524h102v102h-102v-102zM524 652h102v102h-102v-102zM652 140h102v102h-102v-102zM652 652h102v102h-102v-102z" />
<glyph unicode="{" d="M0 0v1152h896v-1152h-896zM396 524h102v102h-102v-102zM524 268h102v102h-102v-102zM524 396h102v102h-102v-102zM524 652h102v102h-102v-102zM524 780h102v102h-102v-102zM652 140h102v102h-102v-102zM652 908h102v102h-102v-102z" />
<glyph unicode="|" d="M0 0v1152h896v-1152h-896zM396 268h102v102h-102v-102zM396 396h102v102h-102v-102zM396 524h102v102h-102v-102zM396 652h102v102h-102v-102zM396 780h102v102h-102v-102z" />
<glyph unicode="}" d="M0 0v1152h896v-1152h-896zM140 140h102v102h-102v-102zM140 908h102v102h-102v-102zM268 268h102v102h-102v-102zM268 396h102v102h-102v-102zM268 652h102v102h-102v-102zM268 780h102v102h-102v-102zM396 524h102v102h-102v-102z" />
<glyph unicode="~" d="M0 0v1152h896v-1152h-896zM140 524h102v102h-102v-102zM268 652h102v102h-102v-102zM396 524h102v102h-102v-102zM524 396h102v102h-102v-102zM652 524h102v102h-102v-102z" />
<glyph unicode="&#xa0;" d="M0 0v1152h896v-1152h-896z" />
<glyph unicode="&#xad;" d="M0 0v1152h896v-1152h-896zM140 524h102v102h-102v-102zM268 524h102v102h-102v-102zM396 524h102v102h-102v-102zM524 524h102v102h-102v-102zM652 524h102v102h-102v-102z" />
<glyph unicode="&#x2000;" horiz-adv-x="682" />
<glyph unicode="&#x2001;" horiz-adv-x="1365" />
<glyph unicode="&#x2002;" horiz-adv-x="682" />
<glyph unicode="&#x2003;" horiz-adv-x="1365" />
<glyph unicode="&#x2004;" horiz-adv-x="455" />
<glyph unicode="&#x2005;" horiz-adv-x="341" />
<glyph unicode="&#x2006;" horiz-adv-x="227" />
<glyph unicode="&#x2007;" horiz-adv-x="227" />
<glyph unicode="&#x2008;" horiz-adv-x="170" />
<glyph unicode="&#x2009;" horiz-adv-x="273" />
<glyph unicode="&#x200a;" horiz-adv-x="75" />
<glyph unicode="&#x2010;" d="M0 0v1152h896v-1152h-896zM140 524h102v102h-102v-102zM268 524h102v102h-102v-102zM396 524h102v102h-102v-102zM524 524h102v102h-102v-102zM652 524h102v102h-102v-102z" />
<glyph unicode="&#x2011;" d="M0 0v1152h896v-1152h-896zM140 524h102v102h-102v-102zM268 524h102v102h-102v-102zM396 524h102v102h-102v-102zM524 524h102v102h-102v-102zM652 524h102v102h-102v-102z" />
<glyph unicode="&#x2012;" d="M0 0v1152h896v-1152h-896zM140 524h102v102h-102v-102zM268 524h102v102h-102v-102zM396 524h102v102h-102v-102zM524 524h102v102h-102v-102zM652 524h102v102h-102v-102z" />
<glyph unicode="&#x2013;" horiz-adv-x="1032" d="M0 0v1152h1024v-1152h-1024zM160 524h117v102h-117v-102zM306 524h117v102h-117v-102zM453 524h116v102h-116v-102zM599 524h116v102h-116v-102zM745 524h117v102h-117v-102z" />
<glyph unicode="&#x2014;" horiz-adv-x="2056" d="M0 0v1152h2048v-1152h-2048zM320 524h233v102h-233v-102zM613 524h233v102h-233v-102zM905 524h233v102h-233v-102zM1198 524h233v102h-233v-102zM1490 524h233v102h-233v-102z" />
<glyph unicode="&#x2018;" d="M0 0v1152h896v-1152h-896zM652 780h102v102h-102v-102zM652 908h102v102h-102v-102z" />
<glyph unicode="&#x2019;" d="M0 0v1152h896v-1152h-896zM140 780h102v102h-102v-102zM140 908h102v102h-102v-102z" />
<glyph unicode="&#x201c;" d="M0 0v1152h896v-1152h-896zM396 780h102v102h-102v-102zM396 908h102v102h-102v-102zM652 780h102v102h-102v-102zM652 908h102v102h-102v-102z" />
<glyph unicode="&#x201d;" d="M0 0v1152h896v-1152h-896zM140 780h102v102h-102v-102zM140 908h102v102h-102v-102zM396 780h102v102h-102v-102zM396 908h102v102h-102v-102z" />
<glyph unicode="&#x202f;" horiz-adv-x="273" />
<glyph unicode="&#x205f;" horiz-adv-x="341" />
<glyph unicode="&#xe000;" horiz-adv-x="1150" d="M0 0v1150h1150v-1150h-1150z" />
</font>
</defs>
</svg>
